<svg xmlns="http://www.w3.org/2000/svg" xmlns:xlink="http://www.w3.org/1999/xlink" viewBox="0 0 32 32">
  <rect x="0" y="0" width="32" height="32" rx="6" ry="6" fill="#fff312"/>
  <g transform="translate(4, 11.5)">
    <path d="M 9.062 0 L 4.32 8.992 L 0 8.992 L 3.703 1.971 C 4.277 0.882 5.709 0 6.902 0 Z M 19.656 2.248 C 19.656 1.006 20.623 0 21.816 0 C 23.009 0 23.976 1.006 23.976 2.248 C 23.976 3.49 23.009 4.496 21.816 4.496 C 20.623 4.496 19.656 3.49 19.656 2.248 Z M 9.872 0 L 14.192 0 L 9.45 8.992 L 5.13 8.992 Z M 14.974 0 L 19.294 0 L 15.592 7.021 C 15.018 8.11 13.585 8.992 12.392 8.992 L 10.232 8.992 Z" fill="rgb(0, 0, 0)"></path>
  </g>
</svg>